<svg width="29" height="32" viewBox="0 0 29 32" fill="none" xmlns="http://www.w3.org/2000/svg">
<g id="arcticons:waterdrinkreminder">
<path id="Vector" d="M19.6656 19.6232C18.7167 19.6295 17.7908 19.9363 17.0048 20.5046C16.2188 21.0729 15.6079 21.8774 15.2491 22.8165C14.8904 23.7556 14.7999 24.7872 14.9892 25.7812C15.1784 26.7752 15.6388 27.6871 16.3123 28.4016C16.9858 29.1162 17.8423 29.6015 18.7735 29.7963C19.7048 29.9911 20.6692 29.8866 21.545 29.4961C22.4208 29.1055 23.1687 28.4464 23.6945 27.602C24.2202 26.7575 24.5001 25.7655 24.4989 24.7511C24.4982 24.0749 24.3723 23.4057 24.1286 22.7817C23.8849 22.1578 23.5282 21.5915 23.079 21.1155C22.6298 20.6395 22.0969 20.2632 21.5111 20.0082C20.9253 19.7532 20.2981 19.6245 19.6656 19.6296V19.6232Z" stroke="black" stroke-linecap="round" stroke-linejoin="round"/>
<path id="Vector_2" d="M16.4877 28.5938H10.3433C9.9951 28.5945 9.65889 28.4578 9.39912 28.2099C9.13935 27.962 8.9743 27.6204 8.93561 27.2504L6.52499 4.24585C6.51367 4.13815 6.52416 4.02911 6.55574 3.92612C6.58732 3.82314 6.63926 3.72862 6.70803 3.64898C6.7768 3.56935 6.86079 3.50646 6.9543 3.46458C7.04781 3.4227 7.14865 3.40281 7.24999 3.40627H21.75C21.8513 3.40281 21.9522 3.4227 22.0457 3.46458C22.1392 3.50646 22.2232 3.56935 22.2919 3.64898C22.3607 3.72862 22.4126 3.82314 22.4442 3.92612C22.4758 4.02911 22.4863 4.13815 22.475 4.24585L20.8619 19.6231" stroke="black" stroke-linecap="round" stroke-linejoin="round"/>
<path id="Vector_3" d="M7.37689 11.4791C11.8598 11.4791 11.8598 13.352 16.3125 13.352C19.1098 13.352 20.1611 12.6093 21.6473 12.0604M19.6656 21.2248V24.751L21.6111 26.1073" stroke="black" stroke-linecap="round" stroke-linejoin="round"/>
</g>
</svg>
