<svg width="29" height="30" viewBox="0 0 29 30" fill="none" xmlns="http://www.w3.org/2000/svg">
<g id="arcticons:super-simple-sleep-timer">
<path id="Vector" d="M14.5 27.9895C21.674 27.9895 27.4896 22.1739 27.4896 15C27.4896 7.82601 21.674 2.01038 14.5 2.01038C7.32607 2.01038 1.51044 7.82601 1.51044 15C1.51044 22.1739 7.32607 27.9895 14.5 27.9895Z" stroke="black" stroke-linecap="round" stroke-linejoin="round"/>
<path id="Vector_2" d="M16.0521 8.74683H19.2542L16.0521 13.5802H19.2542M12.0743 14.1813H14.5695L12.0743 17.9483H14.5695M8.91873 18.7784H10.7318L8.91873 21.5147H10.7318M14.5 2.01038V4.37025M14.5 27.9895V25.4406M27.4896 15H24.9032M1.51044 15H3.9839" stroke="black" stroke-linecap="round" stroke-linejoin="round"/>
<path id="Vector_3" d="M14.5 6.88184V15H18.937" stroke="black" stroke-linecap="round" stroke-linejoin="round"/>
</g>
</svg>
