<svg width="33" height="31" viewBox="0 0 33 31" fill="none" xmlns="http://www.w3.org/2000/svg">
<g id="ph:bowl-food-thin">
<path id="Vector" d="M28.875 13.0782H27.3152C27.1796 10.4694 25.9809 8.00965 23.9676 6.2084C21.9542 4.40715 19.2804 3.40247 16.5 3.40247C13.7196 3.40247 11.0458 4.40715 9.03244 6.2084C7.01905 8.00965 5.82039 10.4694 5.68477 13.0782H4.125C3.98825 13.0782 3.8571 13.1292 3.7604 13.22C3.6637 13.3109 3.60938 13.4341 3.60938 13.5625C3.61368 15.8274 4.29191 18.046 5.56748 19.968C6.84305 21.8899 8.66517 23.4386 10.8281 24.4392V25.1875C10.8281 25.5729 10.9911 25.9425 11.2812 26.215C11.5713 26.4876 11.9647 26.6407 12.375 26.6407H20.625C21.0353 26.6407 21.4287 26.4876 21.7188 26.215C22.0089 25.9425 22.1719 25.5729 22.1719 25.1875V24.4392C24.3348 23.4386 26.157 21.8899 27.4325 19.968C28.7081 18.046 29.3863 15.8274 29.3906 13.5625C29.3906 13.4341 29.3363 13.3109 29.2396 13.22C29.1429 13.1292 29.0118 13.0782 28.875 13.0782ZM26.2827 13.0782H18.1822C18.8452 11.9183 19.7655 10.9058 20.881 10.109C21.9966 9.31216 23.2812 8.7497 24.6482 8.45964C25.6275 9.83199 26.1924 11.4281 26.2827 13.0782ZM23.9766 7.62046C22.4669 8.00412 21.0638 8.69072 19.8638 9.63292C18.6639 10.5751 17.6957 11.7505 17.0259 13.0782H12.2048C12.7746 11.1327 14.0073 9.41633 15.7143 8.19162C17.4212 6.9669 19.5084 6.30138 21.6562 6.2969C21.9566 6.2969 22.2595 6.31264 22.5586 6.33807C23.0754 6.72023 23.5504 7.14981 23.9766 7.62046ZM16.5 4.3594C18.0367 4.35814 19.5519 4.69884 20.9215 5.35358C18.631 5.50454 16.4504 6.33346 14.6928 7.72131C12.9352 9.10916 11.691 10.9845 11.1388 13.0782H6.7173C6.85212 10.7255 7.94122 8.51068 9.76073 6.88906C11.5802 5.26743 13.9919 4.36219 16.5 4.3594ZM21.441 23.6932C21.3512 23.732 21.2752 23.7941 21.222 23.8722C21.1687 23.9504 21.1405 24.0412 21.1406 24.134V25.1875C21.1406 25.316 21.0863 25.4392 20.9896 25.53C20.8929 25.6209 20.7618 25.6719 20.625 25.6719H12.375C12.2382 25.6719 12.1071 25.6209 12.0104 25.53C11.9137 25.4392 11.8594 25.316 11.8594 25.1875V24.134C11.8595 24.0412 11.8313 23.9504 11.778 23.8722C11.7248 23.7941 11.6488 23.732 11.559 23.6932C9.57689 22.8348 7.8842 21.481 6.66606 19.7796C5.44792 18.0783 4.75125 16.0951 4.65223 14.0469H28.3478C28.2488 16.0951 27.5521 18.0783 26.3339 19.7796C25.1158 21.481 23.4231 22.8348 21.441 23.6932Z" fill="black"/>
</g>
</svg>
